<svg xmlns="http://www.w3.org/2000/svg" id="ezBdFZSW9xY1" viewBox="0 0 80 81"><style>@keyframes ezBdFZSW9xY5_to__to{0%,50%{transform:translate(27.02752px,21.543222px);animation-timing-function:cubic-bezier(.39,.575,.565,1)}23.333333%,76.666667%{transform:translate(26px,21px);animation-timing-function:cubic-bezier(.39,.575,.565,1)}to{transform:translate(27.02752px,21.543222px)}}@keyframes ezBdFZSW9xY5_ts__ts{0%,50%{transform:scale(1,1);animation-timing-function:cubic-bezier(.39,.575,.565,1)}23.333333%,76.666667%{transform:scale(1.1,1.1);animation-timing-function:cubic-bezier(.39,.575,.565,1)}to{transform:scale(1,1)}}@keyframes ezBdFZSW9xY10_to__to{0%,to{transform:translate(25.359832px,50.037617px)}50%{transform:translate(25.359832px,49px);animation-timing-function:cubic-bezier(.42,0,.58,1)}}@keyframes ezBdFZSW9xY17_tr__tr{0%,33.333333%,50%,to{transform:translate(48.194326px,41.783098px) rotate(0deg)}43.333333%{transform:translate(48.194326px,41.783098px) rotate(15deg)}60%{transform:translate(48.194326px,41.783098px) rotate(8deg)}66.666667%{transform:translate(48.194326px,41.783098px) rotate(0deg);animation-timing-function:cubic-bezier(.47,0,.745,.715)}}</style><defs><linearGradient id="ezBdFZSW9xY2-fill" x1="0" y1="80" x2="80" y2="0" spreadMethod="pad" gradientUnits="userSpaceOnUse"><stop id="ezBdFZSW9xY2-fill-0" offset="0%" stop-color="#A049F7"></stop><stop id="ezBdFZSW9xY2-fill-1" offset="100%" stop-color="#858F86"></stop></linearGradient></defs><rect id="ezBdFZSW9xY2" width="80" height="80" rx="10" ry="10" transform="translate(0 1)" fill="url(#ezBdFZSW9xY2-fill)" stroke="none" stroke-width="1"></rect><path id="ezBdFZSW9xY3" d="M15.091 38.775c.169-.377.286-.794.52-1.145.532-.795 1.3-1.211 2.26-1.224 2.846-.013 5.679-.013 8.525 0 .52 0 .857.3.844.729-.013.43-.338.716-.87.729-1.092.013-2.17 0-3.262 0h-4.963c-1.066 0-1.599.534-1.599 1.589 0 3.645 0 7.291.013 10.937 0 .221.13.495.273.664a12.05 12.05 0 0 0 1.663 1.576V41.692c0-1.276.572-1.849 1.832-1.849H29.294v-12.76c0-2.11 1.338-3.464 3.43-3.464h22.064c.234 0 .533.026.689.156.169.144.299.456.273.665-.04.208-.26.442-.468.56-.182.104-.442.078-.663.078h-21.83c-1.091 0-1.754.455-1.988 1.354-.013.065-.038.13-.038.195v4.61h32.692c.013-.105.039-.235.039-.352v-3.907c0-1.158-.715-1.875-1.884-1.888-.897-.012-1.78 0-2.677 0-.143 0-.299.014-.442-.026-.403-.078-.65-.338-.623-.755.025-.403.26-.677.688-.677 1.196-.013 2.404-.078 3.6.04 1.286.116 2.143.91 2.611 2.122.065.169.13.325.182.494v18.269a.407.407 0 0 0-.065.13c-.507 1.758-1.624 2.604-3.456 2.604h-6.029v13.177c0 2.018-1.157 3.19-3.17 3.19H18.222c-.351 0-.715-.026-1.066-.117-1.17-.313-1.793-1.159-2.105-2.266.052-7.526.052-15.013.039-22.5Zm10.98 21.407c-.026.039-.052.09-.078.13.533.508 1.052 1.041 1.598 1.536.182.17.468.3.715.3 7.99.013 15.982.013 23.973.013 1.183 0 1.69-.521 1.69-1.706V47.265h-15.71c-1.884 0-3.768.013-5.652 0-1.495-.013-2.716-.898-3.132-2.266-.117-.377-.143-.794-.156-1.198-.026-.82-.013-1.64-.013-2.46H19.99c-.013.104-.026.182-.026.273 0 4.102 0 8.203.013 12.305 0 .195.13.43.273.573a224.22 224.22 0 0 0 3.924 3.932c.169.17.467.286.714.286 8.368.013 16.723.013 25.091.013.17 0 .338-.013.559-.026v-8.489c0-.157-.013-.326.013-.482.052-.365.273-.586.65-.612.364-.026.636.143.74.495.052.182.052.39.052.573 0 2.682-.026 5.364.013 8.06.013 1.106-.532 1.966-1.949 1.966-7.81-.04-15.618-.013-23.428-.013-.181-.013-.363-.013-.558-.013Zm4.716-22.292v5.937c0 1.25.715 1.98 1.962 1.98h28.834c1.221 0 1.949-.73 1.949-1.94v-5.964c-10.928-.013-21.804-.013-32.745-.013Zm.013-1.523h32.693v-3.62H30.8v3.62ZM16.56 52.994v7.383c0 1.289.48 1.77 1.753 1.77h6.913c.156 0 .299-.025.442-.025l-9.109-9.128Z" fill="#FFF" stroke="none" stroke-width="1"></path><path id="ezBdFZSW9xY4" d="M36.934 30.39c-.91 0-1.82.013-2.73 0-.922-.013-1.468-.56-1.48-1.497 0-.391-.013-.782 0-1.172.026-.755.571-1.341 1.325-1.341 1.949-.026 3.885-.026 5.834 0 .728.013 1.273.586 1.313 1.315.026.442.013.872 0 1.315-.026.807-.598 1.367-1.404 1.38-.935 0-1.897-.013-2.858 0Zm-2.742-1.51h5.522V27.85h-5.522v1.029Z" fill="#FFF" stroke="none" stroke-width="1"></path><g style="animation:ezBdFZSW9xY5_to__to 3000ms linear infinite normal forwards"><g transform="translate(27.028 21.543)" style="animation:ezBdFZSW9xY5_ts__ts 3000ms linear infinite normal forwards"><g id="ezBdFZSW9xY5" transform="translate(-27.028 -21.543)" fill="#FFF" stroke="none" stroke-width="1"><path id="ezBdFZSW9xY6" d="M28.124 21.861c-.156.196-.273.482-.468.547-.247.078-.637.078-.806-.078-.896-.768-1.754-1.588-2.611-2.422a.693.693 0 0 1 0-1.002c.299-.287.662-.326.961-.052.897.807 1.767 1.627 2.638 2.46.13.118.169.313.286.547Z"></path><path id="ezBdFZSW9xY7" d="M25.187 25.038c-.286 0-.585.013-.87 0-.39-.026-.637-.26-.663-.65-.026-.417.169-.73.585-.769a14.487 14.487 0 0 1 1.988-.065c.415.013.65.313.65.716 0 .417-.26.664-.663.716-.338.04-.676.013-1.027.013v.04Z"></path><path id="ezBdFZSW9xY8" d="M30.398 19.752c0 .208.013.469 0 .73-.026.416-.325.715-.715.715-.416-.013-.689-.247-.728-.65a20.79 20.79 0 0 1-.065-1.798c0-.403.234-.664.663-.703.403-.039.715.209.767.638.052.339.052.677.078 1.068Z"></path></g></g></g><path id="ezBdFZSW9xY9" d="M61.933 28.424a.789.789 0 0 1-.78.768c-.415 0-.753-.352-.753-.781a.76.76 0 0 1 .767-.768.798.798 0 0 1 .766.78Z" fill="#FFF" stroke="none" stroke-width="1"></path><g transform="translate(25.36 50.038)" style="animation:ezBdFZSW9xY10_to__to 3000ms linear infinite normal forwards"><path id="ezBdFZSW9xY10" d="M26.058 47.356c0 .573-.026 1.055.013 1.55.013.13.143.325.273.377 1.013.417 1.637 1.12 1.637 2.253 0 1.172-.572 1.992-1.624 2.513-.13.065-.273.221-.3.364-.103.586-.311.86-.727.873-.429 0-.675-.3-.753-.899 0-.026-.014-.065-.014-.052-.493-.221-.974-.403-1.416-.664-.416-.234-.52-.677-.286-1.041.221-.339.611-.43 1.027-.209.195.104.39.209.688.352 0-.899.014-1.693-.012-2.5 0-.091-.156-.196-.26-.248-.845-.416-1.378-1.028-1.339-2.018.04-.963.533-1.64 1.378-2.083.116-.065.22-.248.247-.39.09-.47.363-.769.753-.743.429.026.65.287.728.716.026.143.182.3.325.39.181.131.415.183.61.3.39.222.507.573.338.95-.182.391-.507.522-.935.34-.104-.053-.195-.079-.351-.13Zm.039 3.503v1.588c.584-.625.572-1.237 0-1.588Z" transform="translate(-25.36 -50.038)" fill="#FFF" stroke="none" stroke-width="1"></path></g><path id="ezBdFZSW9xY11" d="M36.375 53.788h5.21c.364 0 .676.066.845.43.208.456-.091.964-.624 1.016-.325.039-.65.013-.974.013h-9.395c-.143 0-.299.013-.442 0-.455-.04-.753-.339-.74-.742 0-.417.298-.69.766-.704.61-.013 1.235 0 1.845 0 1.17-.013 2.34-.013 3.509-.013Z" fill="#FFF" stroke="none" stroke-width="1"></path><path id="ezBdFZSW9xY12" d="M32.775 52.46c-.584 0-1.17.013-1.754 0-.468-.013-.767-.286-.767-.703-.013-.43.3-.742.78-.755 1.183-.013 2.365-.013 3.547 0 .494 0 .793.3.793.73 0 .429-.299.715-.806.715-.584.026-1.195.013-1.793.013Z" fill="#FFF" stroke="none" stroke-width="1"></path><path id="ezBdFZSW9xY13" d="M54.839 41.783a3.028 3.028 0 0 1 3.027-3.047 3.02 3.02 0 0 1 3.04 3.034c0 1.68-1.363 3.047-3.027 3.047-1.676.013-3.04-1.354-3.04-3.034Zm1.455 0a1.57 1.57 0 0 0 1.572 1.576c.858 0 1.573-.716 1.573-1.576 0-.872-.702-1.575-1.573-1.562-.883-.013-1.572.677-1.572 1.562Z" fill="#FFF" stroke="none" stroke-width="1"></path><path id="ezBdFZSW9xY14" d="M34.36 40.69c.845-.625 1.118-.677 1.456-.326.338.365.26.69-.364 1.406.338.417.897.82.338 1.42-.325.351-.688.247-1.403-.339-.416.352-.858.886-1.43.313-.558-.573.04-.977.364-1.394-.636-.729-.714-1.054-.35-1.419.337-.352.662-.273 1.39.339Z" fill="#FFF" stroke="none" stroke-width="1"></path><path id="ezBdFZSW9xY15" d="M42.482 41.783c-.585-.807-.65-1.133-.286-1.458.364-.326.663-.247 1.326.325.35-.169.675-.377 1.013-.481.117-.04.338.09.455.208.364.339.286.651-.338 1.406.598.768.676 1.081.338 1.42-.338.338-.702.26-1.442-.339-.39.365-.806.833-1.404.339-.337-.313-.247-.639.338-1.42Z" fill="#FFF" stroke="none" stroke-width="1"></path><path id="ezBdFZSW9xY16" d="M40.065 41.783c.61.781.676 1.068.325 1.42-.325.325-.65.26-1.43-.313-.74.573-1.091.638-1.429.313-.325-.34-.26-.6.338-1.42-.61-.768-.676-1.068-.338-1.406.351-.365.676-.287 1.43.351.402-.351.805-.898 1.416-.338.39.312.299.612-.312 1.393Z" fill="#FFF" stroke="none" stroke-width="1"></path><g transform="translate(48.194 41.783)" style="animation:ezBdFZSW9xY17_tr__tr 3000ms linear infinite normal forwards"><path id="ezBdFZSW9xY17" d="M48.186 40.715c.715-.638 1.066-.716 1.43-.338.337.352.246.716-.364 1.406.35.417.922.847.298 1.459-.324.325-.675.208-1.364-.378-.416.339-.831.86-1.43.326-.337-.3-.246-.612.339-1.42-.598-.729-.676-1.068-.325-1.406.364-.365.701-.286 1.416.352Z" transform="translate(-48.194 -41.783)" fill="#FFF" stroke="none" stroke-width="1"></path></g></svg>