<svg xmlns="http://www.w3.org/2000/svg" id="e5ArCchloOi1" viewBox="0 0 80 81"><style>@keyframes e5ArCchloOi6_to__to{0%,13.333333%,30%,43.333333%,56.666667%,to{transform:translate(40.215224px,46.788071px)}23.333333%{transform:translate(40.215224px,45px);animation-timing-function:cubic-bezier(.42,0,1,1)}36.666667%{transform:translate(40.215224px,46px)}50%{transform:translate(40.215224px,46.5px)}}</style><defs><linearGradient id="e5ArCchloOi2-fill" x1="0" y1="80" x2="80" y2="0" spreadMethod="pad" gradientUnits="userSpaceOnUse"><stop id="e5ArCchloOi2-fill-0" offset="0%" stop-color="#858F86"></stop><stop id="e5ArCchloOi2-fill-1" offset="100%" stop-color="#806BFF"></stop></linearGradient></defs><rect id="e5ArCchloOi2" width="80" height="80" rx="10" ry="10" transform="translate(0 .729)" fill="url(#e5ArCchloOi2-fill)" stroke="none" stroke-width="1"></rect><g id="e5ArCchloOi3" clip-path="url(#e5ArCchloOi9)"><g id="e5ArCchloOi4"><path id="e5ArCchloOi5" d="M38.151 65.728c-.885-.09-1.77-.181-2.656-.298-3.802-.507-7.474-1.417-10.768-3.496-3.282-2.079-5.365-4.963-5.873-8.874-.364-2.82.117-5.523 1.107-8.174 1.393-3.768 3.568-7.068 6.172-10.083 1.484-1.715 3.112-3.313 4.674-4.963.092-.091.209-.156.352-.247-.846-.754-1.159-1.599-.807-2.599.351-1 1.146-1.442 2.265-1.494-.182-.286-.338-.507-.481-.728-1.094-1.676-2.162-3.365-2.865-5.25a6.925 6.925 0 0 1-.339-1.26c-.234-1.286.144-1.936 1.394-2.456h1.08c1.875.52 3.75 1.053 5.625 1.534 1.953.493 3.92.545 5.886.039 1.966-.507 3.92-1.053 5.872-1.573h1.08c1.277.52 1.707 1.196 1.355 2.547a14.46 14.46 0 0 1-1.21 3.119c-.704 1.364-1.563 2.663-2.37 4.028 1.002.052 1.81.468 2.174 1.455.364.988.091 1.845-.716 2.573.09.104.182.208.286.312.781.78 1.576 1.559 2.344 2.338.352.364.377.78.091 1.079-.3.312-.73.286-1.107-.09-.976-.962-1.94-1.924-2.93-2.86a1.312 1.312 0 0 0-.807-.324c-4.583-.026-9.18-.013-13.763 0-.221 0-.508.065-.664.194-3.659 3.353-6.953 7.017-9.44 11.344-1.354 2.365-2.396 4.86-2.786 7.575-.716 5.029.95 9.252 5.729 11.98 2.617 1.495 5.469 2.3 8.424 2.755 5.443.845 10.795.546 16.055-1.156 1.927-.624 3.737-1.507 5.339-2.768 3.242-2.56 4.466-5.964 4.088-9.992-.364-3.924-2.07-7.328-4.219-10.55-.625-.937-1.315-1.807-1.979-2.717-.3-.415-.273-.818.052-1.078.339-.273.742-.208 1.055.208 2.474 3.131 4.583 6.47 5.768 10.304.899 2.91 1.172 5.86.313 8.823-1.016 3.534-3.412 5.95-6.576 7.653-2.604 1.403-5.416 2.196-8.32 2.65-1.237.196-2.487.287-3.724.416-.13.014-.248.053-.378.078-1.263.026-2.539.026-3.802.026Zm1.94-40.19c1.784 0 3.581 0 5.365-.012.17 0 .43-.052.495-.17 1.08-1.753 2.174-3.508 3.177-5.3.351-.624.547-1.352.703-2.054.156-.662-.013-.831-.677-.714-.912.156-1.81.39-2.696.65-1.796.52-3.58 1.065-5.468 1.208-2.097.156-4.102-.286-6.094-.858-1.237-.35-2.461-.715-3.724-.974-.872-.182-1.068.065-.807.922.26.858.573 1.728 1.015 2.521.847 1.494 1.797 2.924 2.683 4.405.182.312.377.403.729.403 1.784-.04 3.541-.026 5.3-.026Zm-.013 1.404h-7.265c-.183 0-.365-.013-.534.039-.417.104-.651.39-.625.806.026.402.247.662.664.727.156.026.325.026.482.026h14.583c.195 0 .39 0 .586-.039.364-.078.612-.364.56-.688-.04-.273-.26-.56-.469-.767-.13-.117-.404-.091-.612-.091-2.46-.013-4.909-.013-7.37-.013Z" fill="#FFF" stroke="none" stroke-width="1"></path><g transform="translate(40.215 46.788)" style="animation:e5ArCchloOi6_to__to 3000ms linear infinite normal forwards"><g id="e5ArCchloOi6" transform="translate(-40.215 -46.788)" fill="#FFF" stroke="none" stroke-width="1"><path id="e5ArCchloOi7" d="M39.74 58.374c-5.273-.234-9.649-3.755-10.886-8.77-.156-.611 0-.988.443-1.118.43-.117.768.156.938.753 1.172 4.132 3.854 6.692 8.073 7.537 5.612 1.13 11.172-2.95 11.862-8.641.664-5.457-2.813-10.24-8.217-11.318-5.156-1.026-10.442 2.34-11.705 7.433-.052.195-.078.39-.157.559-.156.363-.455.506-.833.415-.364-.09-.56-.35-.52-.714.038-.364.143-.728.247-1.092 1.523-5.054 6.406-8.485 11.666-8.212 5.391.286 9.857 4.184 10.847 9.434 1.367 7.29-4.453 14.059-11.758 13.734Z"></path><path id="e5ArCchloOi8" d="M39.896 52.267c0-1.468.013-2.885-.013-4.288 0-.13-.195-.299-.339-.364-.56-.286-1.171-.48-1.718-.793-1.107-.65-1.537-1.65-1.472-2.91.078-1.3.703-2.209 1.888-2.716.508-.22 1.055-.325 1.628-.493.143-.247-.208-.871.456-.871.612-.013.416.533.495.87.533.091 1.067.143 1.588.26.326.078.651.195.95.351.508.273.612.689.365 1.183-.247.467-.508.52-1.094.273-.56-.234-1.145-.403-1.797-.624v4.054c.378.169.769.325 1.146.507 1.667.792 2.41 2.118 2.2 3.898-.194 1.74-1.21 2.806-3.033 3.21-.091.025-.195.038-.286.051-.196.338.208 1.053-.547 1.027-.625-.013-.313-.598-.443-.936-.456-.065-.938-.065-1.367-.234-.677-.26-1.315-.598-1.94-.961-.222-.13-.365-.416-.47-.663-.168-.364.014-.87.34-1.13.364-.286.638-.052.898.168.716.637 1.497 1.118 2.565 1.13Zm.807-.026c1.198-.221 1.784-.832 1.823-1.858.04-1.092-.65-1.962-1.823-2.261v4.119Zm-.729-6.367v-3.547c-1.08.026-1.836.558-1.94 1.364-.13 1.078.469 1.78 1.94 2.183Z"></path></g></g></g><clipPath id="e5ArCchloOi9"><rect id="e5ArCchloOi10" width="50" height="50" rx="0" ry="0" transform="translate(15 15.729)" fill="#FFF" stroke="none" stroke-width="1"></rect></clipPath></g></svg>