<svg xmlns="http://www.w3.org/2000/svg" id="e9duODS0pcM1" viewBox="0 0 80 81"><style>@keyframes e9duODS0pcM3_tr__tr{0%,40%,60%,80%,to{transform:translate(40.07145px,39px) rotate(0deg)}50%{transform:translate(40.07145px,39px) rotate(-3deg);animation-timing-function:cubic-bezier(.47,0,.745,.715)}90%{transform:translate(40.07145px,39px) rotate(3deg)}}@keyframes e9duODS0pcM6_ts__ts{0%,to{transform:translate(37.773148px,26.262046px) scale(1,1)}50%{transform:translate(37.773148px,26.262046px) scale(1.1,1.1)}}</style><defs><linearGradient id="e9duODS0pcM2-fill" x1="0" y1="80" x2="80" y2="0" spreadMethod="pad" gradientUnits="userSpaceOnUse"><stop id="e9duODS0pcM2-fill-0" offset="0%" stop-color="#858F86"></stop><stop id="e9duODS0pcM2-fill-1" offset="100%" stop-color="#806BFF"></stop></linearGradient></defs><rect id="e9duODS0pcM2" width="80" height="80" rx="10" ry="10" transform="translate(0 .729)" fill="url(#e9duODS0pcM2-fill)" stroke="none" stroke-width="1"></rect><g transform="translate(40.071 39)" style="animation:e9duODS0pcM3_tr__tr 2000ms linear infinite normal forwards"><g id="e9duODS0pcM3" transform="translate(-40.071 -40.823)" clip-path="url(#e9duODS0pcM8)"><g id="e9duODS0pcM4"><path id="e9duODS0pcM5" d="M65 48.931c-.403 1.316-1.338 1.993-2.625 2.318-.818.209-1.611.482-2.404.782-.246.09-.532.286-.662.507-1.482 2.461-3.56 4.284-6.042 5.664-.273.157-.43.313-.494.651-.286 1.628-.61 3.256-.923 4.883-.208 1.042-.857 1.589-1.897 1.589-1.052.013-2.105.013-3.17 0-1.027-.013-1.676-.534-1.884-1.537-.182-.872-.338-1.744-.494-2.565-2.56.052-5.094.104-7.705.143l-.442 2.253c-.221 1.159-.845 1.693-2.001 1.706h-3.015c-1.117 0-1.78-.56-1.988-1.667-.286-1.51-.572-3.034-.883-4.544a.916.916 0 0 0-.377-.547c-3.95-2.305-6.42-5.651-7.16-10.208-.208-1.29-.22-2.618-.325-4.024-.182-.117-.299.052-.441.287-.767 1.198-1.755 2.122-3.184 2.487-.247.065-.507.078-.767.104-.454.052-.792-.13-1-.521v-.495c.22-.325.507-.482.922-.52 1.118-.105 1.976-.652 2.651-1.602-.182-.052-.325-.078-.455-.13-.441-.157-.896-.287-1.312-.495-1.247-.638-1.572-1.719-.896-2.826.74-1.198 2.014-1.484 3.131-.664.87.638 1.286 1.524 1.403 2.578a.547.547 0 0 0 .17.365c.038-.143.09-.274.116-.417.754-4.31 3.04-7.565 6.783-9.817.48-.287.922-.222 1.143.169.234.39.091.781-.415 1.08-2.482 1.498-4.392 3.516-5.38 6.277-1.43 4.023-1.351 8.02.572 11.888 1.13 2.265 2.898 3.945 5.093 5.156.715.39 1.066.898 1.183 1.693.234 1.497.572 2.968.845 4.453.064.364.22.494.584.494a113.52 113.52 0 0 1 2.976 0c.39.014.545-.156.61-.52.13-.808.3-1.602.442-2.396.17-.938.572-1.276 1.508-1.185a31.81 31.81 0 0 0 7.627-.17c.727-.103 1.221.3 1.364 1.068.17.873.351 1.758.494 2.63.065.417.22.587.663.573a52.869 52.869 0 0 1 2.871 0c.442.014.598-.182.663-.585.312-1.706.65-3.412.962-5.13.09-.495.337-.821.766-1.055 2.456-1.303 4.509-3.047 5.938-5.482.312-.534.793-.846 1.378-1.029.961-.3 1.923-.612 2.871-.911.884-.287 1.157-.651 1.157-1.563v-3.02c0-.743-.286-1.146-.988-1.38a91.86 91.86 0 0 0-1.754-.574c-.884-.26-1.442-.833-1.728-1.705a11.39 11.39 0 0 0-1.91-3.594c-.091-.117-.208-.235-.338-.404-.091.195-.156.339-.221.482-.676 1.745-2.014 2.46-3.82 2.448-3.327-.013-5.743-2.37-5.795-5.69-.013-.873.09-1.745.156-2.696-.325-.078-.715-.182-1.105-.247-.09-.013-.234.052-.273.13-.753 1.094-1.702 1.992-2.871 2.774.441.143.818.247 1.182.377.52.183.715.521.585.95-.13.417-.52.6-1.04.43a19.208 19.208 0 0 0-5.938-.95 18.756 18.756 0 0 0-5.808.872c-.156.052-.312.092-.468.13-.416.092-.702-.078-.858-.455-.142-.365.04-.768.43-.912.402-.156.83-.26 1.299-.416-.143-.117-.234-.196-.325-.26-3.34-2.358-4.925-6.42-4.028-10.326a9.933 9.933 0 0 1 8.16-7.657c4.067-.65 8.225 1.407 10.213 5.053.338.612.286 1.041-.156 1.276-.416.221-.767.039-1.117-.547-1.729-2.969-4.314-4.48-7.745-4.414-3.898.065-7.29 3.047-8.004 6.94-.715 3.92 1.455 7.903 5.094 9.336.234.09.506.104.753.078a20.99 20.99 0 0 1 4.951 0c.26.026.572.013.806-.091 3.066-1.393 4.794-3.763 5.145-7.136.013-.13.013-.26.052-.39.104-.404.364-.612.78-.573.416.039.688.325.623.729-.181 1.055-.415 2.096-.636 3.138-.04.17-.117.326-.208.547.715.104 1.312.456 2.092.052 1.858-.925 3.781-1.719 5.834-2.148l.429-.079c1.663-.208 2.365.313 2.625 2.006.26 1.744.078 3.476-.221 5.195-.04.195.026.495.169.638 1.299 1.445 2.3 3.06 2.897 4.922.143.43.39.69.819.807.377.104.74.26 1.117.339 1.287.3 2.235.99 2.625 2.304C65 45.937 65 47.434 65 48.932Zm-8.706-16.887c-.052-.586-.09-1.172-.169-1.745-.104-.703-.234-.782-.935-.651-2.131.403-4.106 1.289-6.055 2.187-.221.104-.455.417-.481.664-.117.847-.234 1.719-.182 2.565.13 1.953 1.351 3.386 3.261 3.737 2.521.47 3.145-.221 3.769-2.07.506-1.51.727-3.086.792-4.688ZM19.12 42.733c-.143-.82-.39-1.38-1-1.706-.351-.182-.663-.026-.897.39-.195.352-.026.573.273.69.494.222 1 .391 1.624.626Z" fill="#FFF" stroke="none" stroke-width="1"></path><g transform="translate(37.773 26.262)" style="animation:e9duODS0pcM6_ts__ts 2000ms linear infinite normal forwards"><path id="e9duODS0pcM6" d="M37.401 21.523c.17-.17.325-.482.494-.482.169-.013.35.286.442.52.532.144 1.065.261 1.572.43.338.118.533.365.442.756-.104.442-.403.612-.832.442-.377-.143-.753-.273-1.221-.455 0 .911 0 1.718.013 2.526 0 .078.117.182.195.221.169.091.35.156.532.234 1.17.56 1.703 1.485 1.573 2.696-.13 1.237-.767 1.966-2.027 2.304a1.5 1.5 0 0 1-.234.052c.039.04.065.079.104.105l-.572.612c-.156-.183-.325-.352-.48-.534.038-.04.064-.078.103-.117-.325-.066-.676-.066-.987-.196a7.01 7.01 0 0 1-1.3-.716c-.169-.117-.325-.416-.299-.625.026-.234.182-.52.377-.664.104-.078.429.04.585.156.48.378.961.716 1.65.742 0-.937.013-1.861-.013-2.773 0-.104-.13-.247-.234-.3-.299-.156-.623-.26-.935-.416-.884-.456-1.313-1.198-1.248-2.188.065-1.015.611-1.692 1.56-2.018.26-.09.532-.143.792-.208a.25.25 0 0 1-.052-.104Zm.819 5.403v2.552c.636-.039 1.04-.416 1.104-1.067.078-.703-.325-1.263-1.104-1.485Zm-.624-4.036c-.754.052-1.195.417-1.208 1.002-.013.613.506 1.133 1.208 1.185V22.89Z" transform="translate(-37.773 -26.262)" fill="#FFF" stroke="none" stroke-width="1"></path></g><path id="e9duODS0pcM7" d="M54.618 45.35a2.381 2.381 0 0 1-2.365-2.2c-.039-.482.234-.833.65-.872.429-.04.715.208.793.677.104.625.415.937.91.95.506.013.83-.325.935-.924.078-.495.39-.755.818-.703.416.052.663.39.624.885-.078 1.224-1.13 2.188-2.365 2.188Z" fill="#FFF" stroke="none" stroke-width="1"></path></g><clipPath id="e9duODS0pcM8"><rect id="e9duODS0pcM9" width="50" height="50" rx="0" ry="0" transform="translate(15 15.729)" fill="#FFF" stroke="none" stroke-width="1"></rect></clipPath></g></g></svg>