<svg xmlns="http://www.w3.org/2000/svg" id="eIiogsO2vnQ1" viewBox="0 0 80 81"><style>@keyframes eIiogsO2vnQ8_to__to{0%,50%{transform:translate(40.103605px,36.677647px);animation-timing-function:cubic-bezier(.47,0,.745,.715)}25%,75%{transform:translate(40.103605px,36px);animation-timing-function:cubic-bezier(.47,0,.745,.715)}to{transform:translate(40.103605px,36.677647px)}}@keyframes eIiogsO2vnQ10_ts__ts{0%,60%,90%{transform:translate(40.085079px,40.7869px) scale(1,1);animation-timing-function:cubic-bezier(.42,0,.58,1)}75%{transform:translate(40.085079px,40.7869px) scale(.9,.9);animation-timing-function:cubic-bezier(.42,0,.58,1)}to{transform:translate(40.085079px,40.7869px) scale(1,1)}}@keyframes eIiogsO2vnQ13_to__to{0%{transform:translate(32.81885px,53.951105px);animation-timing-function:cubic-bezier(.42,0,1,1)}35%{transform:translate(35px,53.951105px);animation-timing-function:cubic-bezier(.42,0,1,1)}to{transform:translate(32.81885px,53.951105px)}}</style><defs><linearGradient id="eIiogsO2vnQ2-fill" x1="0" y1="80" x2="80" y2="0" spreadMethod="pad" gradientUnits="userSpaceOnUse"><stop id="eIiogsO2vnQ2-fill-0" offset="0%" stop-color="#858F86"></stop><stop id="eIiogsO2vnQ2-fill-1" offset="100%" stop-color="#806BFF"></stop></linearGradient></defs><rect id="eIiogsO2vnQ2" width="80" height="80" rx="10" ry="10" transform="translate(0 .729)" fill="url(#eIiogsO2vnQ2-fill)" stroke="none" stroke-width="1"></rect><g id="eIiogsO2vnQ3" clip-path="url(#eIiogsO2vnQ14)"><g id="eIiogsO2vnQ4"><path id="eIiogsO2vnQ5" d="M26.823 65.728c-.456-.233-.964-.402-1.367-.701-.756-.585-1.055-1.416-1.055-2.352V19.432c0-2.105.495-2.846 2.422-3.6h26.562c.43.208.912.364 1.29.637.755.546 1.106 1.351 1.12 2.274a257.64 257.64 0 0 1 0 4.483c0 .533-.287.87-.717.87s-.716-.337-.716-.87v-4.34c0-1.04-.586-1.637-1.628-1.637H27.448c-1.016 0-1.615.597-1.615 1.598v43.854c0 .974.6 1.585 1.589 1.585H52.76c1.055 0 1.615-.598 1.615-1.702V28.332c0-.181-.013-.363.013-.532.065-.39.3-.624.69-.624.39 0 .638.22.716.61.04.196.026.39.026.585V62.13c0 2.118-.495 2.846-2.422 3.6H26.823Z" fill="#FFF" stroke="none" stroke-width="1"></path><path id="eIiogsO2vnQ6" d="M27.344 38.325V20.536c0-.598.104-1.13.572-1.533.404-.35.873-.39 1.368-.39H50.859c1.406 0 1.98.585 1.98 1.988v35.473c0 1.416-.587 2.001-2.019 2.001H29.336c-1.42 0-2.005-.598-2.005-2.014.013-5.912.013-11.824.013-17.736Zm1.432-15.021v.48c0 10.773 0 21.531-.013 32.303 0 .507.182.585.625.585 7.148-.013 14.284-.013 21.432 0 .508 0 .612-.169.612-.637-.013-10.733-.013-21.465-.013-32.198v-.52c-7.578-.013-15.078-.013-22.643-.013Zm22.643-1.455V20.73c0-.702 0-.702-.69-.702H29.453c-.13 0-.273-.038-.39.014-.118.051-.274.194-.287.298-.026.494-.013.988-.013 1.508h22.656Z" fill="#FFF" stroke="none" stroke-width="1"></path><path id="eIiogsO2vnQ7" d="M40.04 63.818c-1.446-.039-2.605-1.234-2.553-2.65a2.621 2.621 0 0 1 2.67-2.547c1.419.026 2.604 1.247 2.551 2.663-.039 1.43-1.237 2.56-2.669 2.534Zm1.236-2.611c0-.65-.508-1.157-1.172-1.17-.664 0-1.172.507-1.185 1.157a1.185 1.185 0 0 0 1.198 1.195c.638 0 1.16-.533 1.16-1.182Z" fill="#FFF" stroke="none" stroke-width="1"></path><g transform="translate(40.104 36.678)" style="animation:eIiogsO2vnQ8_to__to 2000ms linear infinite normal forwards"><g id="eIiogsO2vnQ8" transform="translate(-40.104 -36.678)"><path id="eIiogsO2vnQ9" d="M37.526 32.555v-1.598c-.443 0-.872.052-1.276-.013-.286-.052-.664-.22-.768-.442-.104-.233-.026-.662.143-.883a264.18 264.18 0 0 1 3.815-4.743c.404-.494.925-.494 1.328 0 1.29 1.585 2.591 3.17 3.841 4.782.157.208.222.623.118.844-.104.221-.456.403-.73.442-.416.078-.872.013-1.328.013v1.598c4.284 1.443 6.459 5.73 5.586 9.72-.859 3.872-4.205 6.562-8.125 6.575-3.854.012-7.252-2.664-8.138-6.393a8.37 8.37 0 0 1 5.534-9.902Zm2.448 1.053c-3.854.09-6.875 3.222-6.797 7.082.078 3.833 3.268 6.821 7.188 6.73 3.737-.09 6.731-3.274 6.653-7.068-.078-3.782-3.268-6.835-7.044-6.744Zm.13-7.303c-.872 1.079-1.705 2.118-2.604 3.223.182.013.26.026.326.026.976.026 1.145.208 1.145 1.195v1.456h2.24c0-.468.026-.923 0-1.365-.065-1 .3-1.39 1.211-1.286.052.013.117-.013.273-.026-.885-1.118-1.718-2.144-2.59-3.223Z" fill="#FFF" stroke="none" stroke-width="1"></path><g transform="translate(40.085 40.787)" style="animation:eIiogsO2vnQ10_ts__ts 2000ms linear infinite normal forwards"><path id="eIiogsO2vnQ10" d="M40.612 37.441c0 .87-.013 1.585.013 2.3 0 .117.117.247.208.325.13.09.3.13.443.195 1.185.558 1.666 1.39 1.55 2.637-.105 1.105-.73 1.793-1.954 2.131-.078.026-.156.04-.234.065.026.04.065.065.09.104-.168.182-.338.364-.507.559l-.456-.494c.026-.039.065-.078.091-.117-.325-.065-.69-.065-.976-.195-.469-.22-.95-.48-1.341-.831-.326-.286-.248-.728.052-.988.325-.286.56-.065.807.143.417.338.86.637 1.484.624 0-.884.014-1.754-.012-2.625 0-.104-.144-.234-.248-.286-.26-.13-.547-.22-.794-.35-.925-.468-1.341-1.209-1.25-2.157.09-.988.65-1.625 1.666-1.91.196-.053.404-.104.534-.234l.443-.52c.182.156.352.312.534.455-.026.026-.04.038-.065.065.495.13 1.002.233 1.484.415.352.13.547.403.378.819-.144.364-.378.494-.769.325-.351-.182-.716-.286-1.171-.455Zm-.664 2.248v-2.105c-.665.013-1.081.325-1.133.831-.065.637.273 1.04 1.133 1.274Zm.625 4.184c.742-.195 1.054-.559 1.041-1.182 0-.65-.377-1.105-1.041-1.26v2.442Z" transform="translate(-40.085 -40.787)" fill="#FFF" stroke="none" stroke-width="1"></path></g></g></g><path id="eIiogsO2vnQ11" d="M40.312 51.877h-7.76c-.143 0-.3.013-.443-.013-.377-.078-.612-.312-.612-.714 0-.364.222-.611.586-.676.157-.026.326-.026.482-.026h15.482c.13 0 .26-.013.39.013.417.052.652.273.678.689.026.39-.274.688-.704.714-.195.013-.39 0-.586 0-2.5.013-5 .013-7.513.013Z" fill="#FFF" stroke="none" stroke-width="1"></path><path id="eIiogsO2vnQ12" d="M43.216 53.241h4.935c.143 0 .3-.013.442.026.365.091.56.338.547.702-.013.338-.195.585-.547.65-.143.026-.286.026-.442.026H38.19c-.117 0-.235 0-.339-.013-.403-.052-.612-.3-.612-.689 0-.39.222-.637.612-.689.144-.026.287-.013.443-.013h4.922Z" fill="#FFF" stroke="none" stroke-width="1"></path><g transform="translate(32.819 53.951)" style="animation:eIiogsO2vnQ13_to__to 2000ms linear infinite normal forwards"><path id="eIiogsO2vnQ13" d="M32.825 53.254c.222 0 .456-.026.677 0 .391.052.625.3.625.69 0 .389-.208.662-.611.688a9.436 9.436 0 0 1-1.355.013c-.416-.026-.65-.286-.65-.702.012-.416.26-.65.676-.689.209-.026.43-.013.638 0 0-.013 0-.013 0 0Z" transform="translate(-32.819 -53.951)" fill="#FFF" stroke="none" stroke-width="1"></path></g></g><clipPath id="eIiogsO2vnQ14"><rect id="eIiogsO2vnQ15" width="50" height="50" rx="0" ry="0" transform="translate(15 15.729)" fill="#FFF" stroke="none" stroke-width="1"></rect></clipPath></g></svg>